<svg xmlns="http://www.w3.org/2000/svg" fill="currentColor" viewBox="0 0 14 16"><path d="M11 10c.8333 0 1.5417.2917 2.125.875.5833.5833.875 1.2917.875 2.125 0 .8333-.2917 1.5417-.875 2.125-.5833.5833-1.2917.875-2.125.875-.8333 0-1.54167-.2917-2.125-.875C8.29167 14.5417 8 13.8333 8 13c0-.3125.04167-.6146.125-.9062l-3.0625-1.9063C4.47917 10.7292 3.79167 11 3 11c-.83333 0-1.54167-.2917-2.125-.875C.291667 9.54167 0 8.83333 0 8c0-.83333.291667-1.54167.875-2.125C1.45833 5.29167 2.16667 5 3 5c.79167 0 1.47917.27083 2.0625.8125L8.125 3.90625C8.04167 3.61458 8 3.3125 8 3c0-.83333.29167-1.54167.875-2.125C9.45833.291667 10.1667 0 11 0c.8333 0 1.5417.291667 2.125.875C13.7083 1.45833 14 2.16667 14 3c0 .83333-.2917 1.54167-.875 2.125C12.5417 5.70833 11.8333 6 11 6c-.7917 0-1.47917-.27083-2.0625-.8125L5.875 7.09375c.1875.60417.1875 1.20833 0 1.8125l3.0625 1.90625C9.52083 10.2708 10.2083 10 11 10zm1.0625-8.0625C11.7708 1.64583 11.4167 1.5 11 1.5c-.4167 0-.7708.14583-1.0625.4375C9.64583 2.22917 9.5 2.58333 9.5 3s.14583.77083.4375 1.0625c.2917.29167.6458.4375 1.0625.4375.4167 0 .7708-.14583 1.0625-.4375.2917-.29167.4375-.64583.4375-1.0625s-.1458-.77083-.4375-1.0625zm-10.125 7.125C2.22917 9.35417 2.58333 9.5 3 9.5s.77083-.14583 1.0625-.4375S4.5 8.41667 4.5 8s-.14583-.77083-.4375-1.0625S3.41667 6.5 3 6.5s-.77083.14583-1.0625.4375S1.5 7.58333 1.5 8s.14583.77083.4375 1.0625zm8 5c.2917.2917.6458.4375 1.0625.4375.4167 0 .7708-.1458 1.0625-.4375.2917-.2917.4375-.6458.4375-1.0625 0-.4167-.1458-.7708-.4375-1.0625-.2917-.2917-.6458-.4375-1.0625-.4375-.4167 0-.7708.1458-1.0625.4375C9.64583 12.2292 9.5 12.5833 9.5 13c0 .4167.14583.7708.4375 1.0625z"></path></svg>
